<svg xmlns="http://www.w3.org/2000/svg" viewBox="-1.06 2.15 130.11 122.41" width="40" height="40">
<path style="fill:#e56b99; stroke:none;" d="M24 108C24 111.87 23.0728 117.327 25.179 120.772C28.1325 125.602 42.7054 125.742 46.2577 121.566C49.0913 118.235 48 112.057 48 108L80 108C80 111.87 79.0728 117.327 81.179 120.772C84.1325 125.602 98.7054 125.742 102.258 121.566C105.091 118.235 104 112.057 104 108C114.637 106.805 112 95.0788 112 87L112 39C112 31.1256 113.355 22.0082 109.005 15C97.5454 -3.46303 56.0112 3.10863 37 4.04012C27.8134 4.49023 19.364 11.0921 16.7894 20C11.7405 37.4683 16 61.8178 16 80C16 88.888 12.0201 106.654 24 108z"/>
<path style="fill:#ffffff; stroke:none;" d="M48 12L48 20L80 20L80 12L48 12M24 28L24 76L104 76L104 28L24 28z"/>
<path style="fill:#e56b99; stroke:none;" d="M8 60L8 36C-4.07631 36.1431 -4.0763 59.8569 8 60M120 36L120 60C132.076 59.8569 132.076 36.1431 120 36z"/>
<path style="fill:#ffffff; stroke:none;" d="M29.1088 85.7461C21.0258 89.0969 26.5978 101.692 34.8912 98.2539C42.9742 94.9031 37.4022 82.3082 29.1088 85.7461M93.1088 85.7461C85.0258 89.0969 90.5978 101.692 98.8912 98.2539C106.974 94.9031 101.402 82.3082 93.1088 85.7461z"/>
</svg>